<?xml version="1.0" encoding="utf-8"?>
<!-- Generator: Adobe Illustrator 21.0.0, SVG Export Plug-In . SVG Version: 6.00 Build 0)  -->
<svg version="1.1" id="_x31_" xmlns="http://www.w3.org/2000/svg" xmlns:xlink="http://www.w3.org/1999/xlink" x="0px" y="0px"
	 viewBox="0 0 3000 3000" style="enable-background:new 0 0 3000 3000;" xml:space="preserve">
<style type="text/css">
	.st0{fill-rule:evenodd;clip-rule:evenodd;fill:#FFFFFF;}
	.st1{fill-rule:evenodd;clip-rule:evenodd;fill:#437820;}
	.st2{fill-rule:evenodd;clip-rule:evenodd;fill:#4F2C16;}
	.st3{fill-rule:evenodd;clip-rule:evenodd;fill:#CCCCCC;}
	.st4{fill-rule:evenodd;clip-rule:evenodd;fill:#F4C5A1;}
	.st5{fill-rule:evenodd;clip-rule:evenodd;fill:#889F2B;}
	.st6{fill-rule:evenodd;clip-rule:evenodd;fill:#F7B65C;}
	.st7{fill-rule:evenodd;clip-rule:evenodd;fill:#2E5215;}
	.st8{fill-rule:evenodd;clip-rule:evenodd;fill:#6A8013;}
	.st9{fill-rule:evenodd;clip-rule:evenodd;fill:#EDA191;}
	.st10{fill-rule:evenodd;clip-rule:evenodd;fill:#2B180A;}
	.st11{fill-rule:evenodd;clip-rule:evenodd;}
	.st12{fill-rule:evenodd;clip-rule:evenodd;fill:#E0943E;}
	.st13{fill-rule:evenodd;clip-rule:evenodd;fill:#4D4D4D;}
	.st14{fill-rule:evenodd;clip-rule:evenodd;fill:#333333;}
	.st15{fill-rule:evenodd;clip-rule:evenodd;fill:#666666;}
	.st16{fill-rule:evenodd;clip-rule:evenodd;fill:#E6E6E6;}
	.st17{fill-rule:evenodd;clip-rule:evenodd;fill:#B3B3B3;}
</style>
<g>
	<rect x="0.4" class="st0" width="3000.6" height="3000.6"/>
	<g>
		<g>
			<path class="st1" d="M1351.4,1994.1h51.2v227.3h-51.2V2125h-85.9v96.4h-51.2v-227.3h51.2v86.9h85.9V1994.1L1351.4,1994.1z
				 M1590.5,2134.8c0,13.6-2,26-5.9,37.2c-3.9,11.3-9.6,20.9-17.1,28.9c-7.4,8-16.3,14.2-26.7,18.5c-10.4,4.4-22,6.6-34.9,6.6
				c-12.7,0-24.2-2.2-34.6-6.6c-10.4-4.4-19.3-10.6-26.7-18.5c-7.4-8-13.2-17.6-17.4-28.9c-4.1-11.3-6.2-23.7-6.2-37.2
				c0-13.6,2.1-25.9,6.4-37.1c4.3-11.1,10.2-20.7,17.7-28.5c7.5-7.9,16.5-14,26.9-18.4c10.4-4.4,21.7-6.6,33.9-6.6
				c12.5,0,23.9,2.2,34.3,6.6c10.4,4.4,19.3,10.5,26.7,18.4c7.4,7.9,13.2,17.4,17.4,28.5C1588.5,2108.9,1590.5,2121.3,1590.5,2134.8
				L1590.5,2134.8z M1540.7,2134.8c0-15.1-3-27-9-35.6c-6-8.6-14.6-13-25.7-13c-11.2,0-19.8,4.3-25.9,13c-6.1,8.6-9.2,20.5-9.2,35.6
				c0,15.1,3.1,27.1,9.2,35.9c6.1,8.8,14.8,13.3,25.9,13.3c11.1,0,19.7-4.4,25.7-13.3C1537.7,2161.9,1540.7,2149.9,1540.7,2134.8
				L1540.7,2134.8z M1663.7,2186.3c9,0,15.3-0.9,19-2.6c3.7-1.7,5.6-5.1,5.6-10.2c0-3.9-2.4-7.4-7.2-10.3c-4.8-2.9-12.1-6.3-22-10
				c-7.6-2.9-14.6-5.8-20.8-8.9c-6.2-3-11.5-6.7-15.9-11c-4.4-4.3-7.8-9.3-10.2-15.2c-2.4-5.9-3.6-13-3.6-21.3c0-16.2,6-29,18-38.4
				c12-9.4,28.5-14.1,49.5-14.1c10.5,0,20.6,0.9,30.2,2.8c9.6,1.8,17.3,3.9,23,6.1l-8.5,38c-5.7-2-11.9-3.7-18.5-5.2
				c-6.7-1.5-14.2-2.3-22.5-2.3c-15.3,0-23,4.3-23,12.8c0,2,0.3,3.7,1,5.2c0.7,1.5,2,3,3.9,4.4c2,1.4,4.7,2.9,8,4.6
				c3.4,1.7,7.7,3.5,13,5.5c10.7,4,19.6,7.9,26.6,11.8c7,3.8,12.5,8,16.6,12.5c4,4.5,6.9,9.5,8.5,14.9c1.6,5.5,2.5,11.8,2.5,19
				c0,17-6.4,29.9-19.2,38.6c-12.8,8.7-30.9,13.1-54.3,13.1c-15.3,0-28-1.3-38.2-3.9c-10.2-2.6-17.2-4.8-21.2-6.6l8.2-39.7
				c8.3,3.3,16.8,5.8,25.6,7.7C1646.5,2185.4,1655.2,2186.3,1663.7,2186.3L1663.7,2186.3z M1757.5,2005.9l48.9-7.9v50.8h58.7v40.7
				h-58.7v60.7c0,10.2,1.8,18.5,5.4,24.6c3.6,6.1,10.9,9.2,21.8,9.2c5.2,0,10.7-0.5,16.2-1.5s10.7-2.4,15.2-4.1l6.9,38
				c-5.9,2.4-12.5,4.5-19.7,6.2c-7.2,1.7-16.1,2.6-26.6,2.6c-13.3,0-24.4-1.8-33.1-5.4c-8.7-3.6-15.7-8.6-21-15.1
				c-5.2-6.4-8.9-14.3-11-23.4c-2.1-9.2-3.1-19.4-3.1-30.5V2005.9L1757.5,2005.9z M1876,2136.5c0-15.3,2.4-28.7,7-40.2
				c4.7-11.5,10.9-21.1,18.5-28.7c7.6-7.6,16.5-13.4,26.4-17.4c9.9-3.9,20.2-5.9,30.7-5.9c24.5,0,43.8,7.5,58,22.5
				c14.2,15,21.3,37,21.3,66.1c0,2.8-0.1,6-0.3,9.3c-0.2,3.4-0.4,6.4-0.7,9h-110.8c1.1,10.1,5.8,18,14.1,23.9
				c8.3,5.9,19.5,8.9,33.4,8.9c9,0,17.8-0.8,26.4-2.5c8.6-1.6,15.7-3.7,21.2-6.1l6.6,39.7c-2.6,1.3-6.1,2.6-10.5,3.9
				c-4.4,1.3-9.2,2.5-14.6,3.4c-5.4,1-11.1,1.8-17.2,2.5c-6.1,0.6-12.2,1-18.4,1c-15.5,0-29-2.3-40.5-6.9
				c-11.5-4.6-21-10.9-28.5-18.9c-7.5-8-13.1-17.5-16.7-28.4C1877.8,2161,1876,2149.1,1876,2136.5L1876,2136.5z M1990.7,2117.8
				c-0.2-4.2-0.9-8.2-2.1-12.1c-1.2-3.9-3.1-7.4-5.6-10.5c-2.5-3.1-5.7-5.6-9.5-7.5c-3.8-1.9-8.6-2.9-14.3-2.9
				c-5.5,0-10.2,0.9-14.1,2.8c-3.9,1.8-7.2,4.3-9.8,7.4c-2.6,3.1-4.7,6.6-6.1,10.7c-1.4,4-2.5,8.1-3.1,12.3H1990.7L1990.7,2117.8z
				 M2103.3,2133.8c0,15.1,3.4,27.2,10.2,36.4c6.8,9.2,16.8,13.8,30.2,13.8c4.4,0,8.4-0.2,12.1-0.5c3.7-0.3,6.8-0.7,9.2-1.1v-88.9
				c-3.1-2-7.1-3.6-12-4.9c-4.9-1.3-9.9-2-14.9-2C2114.9,2086.6,2103.3,2102.4,2103.3,2133.8L2103.3,2133.8z M2213.8,2215.8
				c-4.4,1.3-9.4,2.6-15.1,3.8c-5.7,1.2-11.7,2.3-17.9,3.1c-6.2,0.9-12.6,1.6-19,2.1c-6.4,0.5-12.6,0.8-18.5,0.8
				c-14.2,0-26.9-2.1-38-6.2c-11.1-4.1-20.6-10.1-28.2-17.9c-7.6-7.7-13.5-17.2-17.5-28.2c-4-11-6.1-23.4-6.1-37.2
				c0-14,1.8-26.6,5.2-37.9c3.5-11.2,8.5-20.8,15.1-28.7c6.5-7.8,14.6-13.9,24.1-18c9.5-4.2,20.4-6.2,32.6-6.2
				c6.8,0,12.9,0.7,18.2,2c5.3,1.3,10.8,3.2,16.2,5.6v-78l48.9-7.9V2215.8z"/>
			<path class="st2" d="M787.6,2221.4v-227.3h153.5v43H838.8v44.6h90.8v42h-90.8v54.8h109.9v43H787.6L787.6,2221.4z M1037.9,2224.7
				c-14.2-0.2-25.7-1.7-34.6-4.6c-8.9-2.8-15.8-6.8-21-12c-5.1-5.1-8.6-11.4-10.5-18.7c-1.9-7.3-2.8-15.6-2.8-24.8v-189.9l48.9-7.9
				v187.9c0,4.4,0.3,8.3,1,11.8c0.7,3.5,1.9,6.4,3.8,8.9c1.9,2.4,4.5,4.4,8,5.9c3.5,1.5,8.2,2.5,14.1,3L1037.9,2224.7L1037.9,2224.7
				z M1147.4,1966.9c9.2,0,17.6,0.9,25.2,2.8c7.7,1.9,13.6,3.7,17.7,5.4l-9.5,39c-4.4-2-9.1-3.4-14.3-4.4c-5.1-1-9.9-1.5-14.3-1.5
				c-5.9,0-10.9,0.8-14.9,2.5c-4,1.6-7.2,3.9-9.5,6.7c-2.3,2.8-3.9,6.2-4.9,10.2c-1,3.9-1.5,8.2-1.5,12.8v8.5h60.3v40.7h-60.3v131.8
				h-48.9v-181.7c0-22.3,6.3-40,18.9-53.1C1104.1,1973.5,1122.7,1966.9,1147.4,1966.9z"/>
		</g>
		<g>
			<path class="st3" d="M1500.7,1957.5c121.6,0,220.7-16.5,220.7-36.8c0-20.3-99.2-36.8-220.7-36.8c-121.6,0-220.7,16.5-220.7,36.8
				C1280,1941,1379.1,1957.5,1500.7,1957.5z"/>
			<path class="st4" d="M1731.6,1274c0.1,0.1,0.1,0.1,0.2,0.2c9.5,15.6,28.4,13.4,42,4.6c22.1-14.1,32.2-41.8,33.9-66.9
				c0-0.4,0.1-0.7,0.3-1c25.3-40.4,31.9-90.5,20.1-136.4c-20.2,44.4-37.1,84.6-81.7,110.1c-0.9,14.2-2.3,28.5-4.5,42.7
				c2.9,3.3,7.8,4.4,11.7,2.4c8-4,10-17.3,10.5-25.1c0-0.6,0.3-1.2,0.8-1.6c28-22.8,45.6-54.5,53.5-89.4c0.3-1.2,1.5-1.9,2.7-1.7
				c1.2,0.3,1.9,1.5,1.7,2.7c-8.1,35.6-25.9,67.9-54.3,91.2c-0.7,9.7-3.4,23.1-12.9,27.8c-4.7,2.4-10.3,1.7-14.5-1.2
				C1738.8,1246.6,1735.7,1260.5,1731.6,1274z"/>
			<path class="st4" d="M1948.4,1351.3c23.5,0.3,52.9-8.3,67.8-27.5c13.5-17.3,1.5-25.7-17-25.4l-98.5,1.8
				C1920.1,1311.3,1939.9,1332.1,1948.4,1351.3z"/>
			<path class="st2" d="M1656.2,1823c-30.1-13.2-92.4-14.8-123.3-1.1c-0.1,0.1-0.2,0.1-0.3,0.2c-0.1,0-0.2,0.1-0.3,0.1
				c-0.6,0.3-1.1,0.5-1.7,0.8l24.8,99.3l114,2.3c28.1,0.6,8.4-68.2-57.3-69c-1.2,0-2.2-1-2.2-2.2c0-1.2,1-2.2,2.2-2.2
				c12.8,0.2,24,2.8,33.6,6.9L1656.2,1823z"/>
			<path class="st5" d="M1715.4,1530.9c53-15,105.4-39.5,149.5-72.4c32.6-24.4,67.5-59,82.2-97.9c-0.5-2-1.2-4-2-6
				c-0.1-0.2-0.2-0.4-0.2-0.6c-9.7-23-37.6-49.3-59.8-55.8c-61.4,58.7-114.3,91-200.8,78.6c12.4,37.3,19.9,81.7,25.9,119.1
				C1712,1507.6,1713.7,1519.3,1715.4,1530.9z"/>
			<path class="st4" d="M1100.8,1300.3l-98.5-1.8c-18.5-0.3-30.5,8.1-17,25.4c14.9,19.1,44.3,27.8,67.8,27.5
				C1061.5,1332.1,1081.3,1311.3,1100.8,1300.3z"/>
			<path class="st5" d="M1286,1530.9c1.7-11.7,3.4-23.4,5.3-35c6-37.3,13.5-81.8,25.9-119.1c-86.5,12.4-139.4-19.9-200.8-78.6
				c-22.2,6.5-50.1,32.8-59.8,55.8c-0.1,0.2-0.1,0.4-0.2,0.6c-0.8,2-1.5,4-2,6c14.7,38.9,49.5,73.5,82.2,97.9
				C1180.7,1491.5,1233.1,1516,1286,1530.9z"/>
			<path class="st6" d="M1587.1,1095.7c-46.6-6.6-97.6-7.6-145.6-3.2c-8.1,13.4-11,25.2,9.1,23.8c16.3-1.1,39.1-10.5,53-19.1
				c1-0.6,2.4-0.3,3,0.7c0.6,1,0.3,2.4-0.7,3c-3.6,2.2-7.6,4.4-12,6.5c-21.2,21.1-52.7,57.9,2.5,41.8
				C1520.4,1142.5,1572.6,1118.1,1587.1,1095.7z"/>
			<path class="st1" d="M1270.5,1049.9c19.1-12.6,40.4-22.3,61.9-29.8c1.2-0.4,2.4,0.2,2.8,1.4c0.4,1.2-0.2,2.4-1.4,2.8
				c-23,8.1-45.8,18.6-65.8,32.6c0,0,0,0-0.1,0.1c-1,0.7-1.9,1.3-2.8,2c-13.3,10.8-21.8,85.1-9.3,99.6c75.4-97.6,414.4-97.6,489.8,0
				c12.5-14.5,4.1-88.8-9.3-99.6c-1.4-1-2.9-2-4.3-3c0,0-0.1-0.1-0.1-0.1c-38.1-26.1-87.4-41.1-132.3-49c-1.2-0.2-2-1.4-1.8-2.6
				c0.2-1.2,1.4-2,2.6-1.8c44,7.8,91.9,22.2,130,47.1c-9.5-69.4-50.2-143.3-95.6-194.9c-0.8-0.9-0.7-2.3,0.2-3.1
				c0.9-0.8,2.3-0.7,3.1,0.2c18.5,21,36.2,45.7,51.4,72.2c28.5,0,80.2,10.7,108.4,24c-63.3-113.4-197.5-195.6-328.1-150.3
				C1362.9,834.6,1300.1,946.8,1270.5,1049.9z"/>
			<path class="st7" d="M1252.3,1095.7c-3.9,24.9-3.8,54.3,3.5,62.9c75.4-97.6,414.4-97.6,489.8,0c12.5-14.5,4.1-88.8-9.3-99.6
				c-1.4-1-2.9-2-4.3-3c0,0-0.1-0.1-0.1-0.1c-38.1-26.1-87.4-41.1-132.3-49c-1.2-0.2-2-1.4-1.8-2.6c0.2-1.2,1.4-2,2.6-1.8
				c44,7.8,91.9,22.2,130,47.1c-9.3-68-48.6-140.3-92.9-191.7c-19,11.1,26.1,97.8-31.5,122.9c-68.2,29.7,43.4,67.3-44.3,64.2
				c-87.5-3-173.2,9.7-267.8,50.2C1278.1,1101.9,1265.1,1096.5,1252.3,1095.7L1252.3,1095.7z M1650.8,866.9
				c45.4,28.9,74.1,23.6,94.1,9.9c20.7,21.4,38.7,45.4,53,71.1c-28.2-13.3-79.9-24-108.4-24C1677.8,903.5,1664.7,884.2,1650.8,866.9
				z"/>
			<path class="st4" d="M1269.8,1274c-4.1-13.5-7.2-27.4-9.5-41.5c-4.2,2.9-9.8,3.5-14.5,1.2c-9.5-4.7-12.2-18.1-12.9-27.8
				c-28.3-23.3-46.2-55.7-54.3-91.2c-0.3-1.2,0.5-2.4,1.7-2.7c1.2-0.3,2.4,0.5,2.7,1.7c7.9,34.9,25.5,66.6,53.5,89.4
				c0.5,0.4,0.8,0.9,0.8,1.6c0.5,7.8,2.5,21.1,10.5,25.1c4,2,8.8,0.9,11.7-2.4c-2.2-14.2-3.6-28.5-4.5-42.7
				c-44.5-25.5-61.4-65.7-81.7-110.1c-11.7,45.9-5.2,96,20.1,136.4c0.2,0.3,0.3,0.7,0.3,1c1.6,25.1,11.8,52.7,33.8,66.8
				c13.6,8.7,32.5,11.1,42-4.5C1269.6,1274.2,1269.7,1274.1,1269.8,1274z"/>
			<path class="st4" d="M1500.7,1415.9c16.2-0.5,35.7-1.9,55.9-4.8c0.5-0.3,1.1-0.4,1.6-0.2c36.2-5.3,74.1-15.3,98.1-32.6
				c62.6-45,81.2-121.6,85.8-194.9c0-0.1,0-0.3,0-0.4c0.4-6.8,0.7-13.7,0.9-20.4c-25.1-33.9-83.2-55.9-151.2-66.1
				c-13.8,24-68.4,49.8-94.3,57.3c-8.1,2.4-31,8.5-35.8-2.2c-4.4-9.8,10.5-27.7,21.2-39c-10.9,4.4-22.5,7.7-32.1,8.4
				c-22.7,1.6-23.2-12.3-14.8-27.7c-79.1,8.1-149.3,31.2-177.7,69.4c0.2,6.8,0.5,13.6,0.9,20.5c0,0.1,0,0.2,0,0.3
				c1.8,29.6,6,59.7,14.3,88.1c0,0,0,0,0,0c1.1,0.6,1.5,1.9,1,3c0,0,0,0.1-0.1,0.1c12.5,40.7,34.1,77.6,70.5,103.8
				C1382.9,1405.4,1455.2,1414.6,1500.7,1415.9z"/>
			<path class="st2" d="M1355.7,1858c9.5-4.2,20.7-6.8,33.6-6.9c1.2,0,2.2,1,2.2,2.2c0,1.2-1,2.2-2.2,2.2
				c-65.7,0.8-85.4,69.6-57.3,69l114-2.3l24.8-99.3c-0.5-0.3-1.1-0.5-1.7-0.8c-0.1,0-0.2-0.1-0.3-0.1c-0.1,0-0.2-0.1-0.3-0.2
				c-30.9-13.7-93.2-12.1-123.3,1.1L1355.7,1858z"/>
			<path class="st1" d="M1560.3,1601.7c53-6.9,108.7-23.7,152.8-54.7c-2.3-16.8-4.7-33.6-7.4-50.4c-6.1-38.1-13.9-83.8-26.8-121.4
				c-0.2-0.3-0.3-0.5-0.3-0.8c-0.8-2.3-1.6-4.5-2.4-6.7c-5.4,5-11.2,9.8-17.4,14.2c-24.7,17.7-63.3,28-100.2,33.4l-57,71.2
				c-0.1,0.1-0.1,0.1-0.2,0.2c-0.1,0.1-0.3,0.3-0.5,0.4c-0.3,0.2-0.7,0.3-1.1,0.3c-0.4,0-0.7-0.1-1.1-0.3c-0.2-0.1-0.3-0.2-0.5-0.4
				c-0.1-0.1-0.1-0.1-0.2-0.2l-57.2-71.5c-36.3-5.5-74.2-15.7-98.4-33.1c-6.2-4.5-12-9.2-17.4-14.2c-0.8,2.2-1.6,4.4-2.4,6.7
				c0,0.3-0.1,0.6-0.3,0.8c-12.9,37.6-20.6,83.3-26.8,121.4c-2.7,16.8-5.1,33.6-7.4,50.4c44.1,31,99.8,47.8,152.8,54.7
				c12.1-20.3,34.3-33.8,59.6-33.8c0,0,0,0,0.1,0s0,0,0.1,0C1526.1,1567.9,1548.2,1581.5,1560.3,1601.7z"/>
			<path class="st2" d="M1435.7,1661.6c-2.8-7.6-4.4-15.8-4.4-24.3c0-11.3,2.7-22,7.5-31.4c-52.5-7-107.3-23.7-151.2-53.9
				c-2.2,16.6-4.2,33.3-6.2,50C1325.6,1635,1381.4,1653.7,1435.7,1661.6z"/>
			<path class="st1" d="M1721.8,1606.2c-45.3,33.6-102.6,52.5-158,60.2c-11,23.8-35.1,40.3-63,40.3c-27.9,0-52-16.5-63-40.3
				c-55.5-7.7-112.7-26.5-158-60.2l-55.4,86c39.3,29,92.1,42.8,140.3,45.5c43.5,2.4,97.2-3.9,134.9-27.3c0.4-0.2,0.8-0.3,1.2-0.3
				c0.4,0,0.8,0.1,1.2,0.3c37.7,23.4,91.4,29.7,134.9,27.3c48.3-2.6,101-16.5,140.3-45.5L1721.8,1606.2z"/>
			<path class="st5" d="M1523.9,1796.2l8.9,20.9c29.9-12.3,84.2-11.8,116.7-1.3l24.7-77.9c-12.5,2.1-25,3.5-37.2,4.2
				c-44,2.4-97.8-3.9-136.3-27.3c-38.5,23.3-92.3,29.7-136.3,27.3c-12.2-0.7-24.7-2-37.2-4.2l24.7,77.9c32.5-10.5,86.8-11,116.7,1.3
				l8.9-20.9C1483.2,1778.5,1518.4,1779.2,1523.9,1796.2z"/>
			<path class="st8" d="M1612,1808.8c13.8,1.2,26.8,3.6,37.5,7l24.7-77.9c-12.5,2.1-25,3.5-37.2,4.2c-44,2.4-97.8-3.9-136.3-27.3
				c-38.5,23.3-92.3,29.7-136.3,27.3c-12.2-0.7-24.7-2-37.2-4.2l5.3,16.5c37,12.1,138.2,8.1,166.4-12.1
				c29.5,20.3,85.9,34.6,123.8,34.6C1621.9,1779.7,1616.8,1791.8,1612,1808.8z"/>
			<path class="st9" d="M1447.4,1415.9l52.6,65.7l52.4-65.4c-18.6,2.5-36.5,3.8-51.6,4.2c0,0,0,0-0.1,0c0,0,0,0-0.1,0
				C1485.1,1419.9,1466.6,1418.6,1447.4,1415.9z"/>
			<path class="st6" d="M1560.1,1663.6c0-0.1,0.1-0.1,0.1-0.2c3.5-8,5.5-16.8,5.5-26.1c0-11.6-3-22.5-8.4-32
				c-0.1-0.1-0.1-0.2-0.1-0.2c-11.2-19.5-32.2-32.7-56.3-32.7c0,0,0,0-0.1,0c0,0,0,0-0.1,0c-24.2,0-45.2,13.2-56.4,32.8
				c0,0.1-0.1,0.2-0.1,0.2c-5.3,9.4-8.4,20.3-8.4,32c0,9.3,1.9,18.1,5.5,26.1c0,0.1,0.1,0.1,0.1,0.2c10.1,22.8,32.9,38.7,59.4,38.7
				C1527.2,1702.2,1550,1686.3,1560.1,1663.6z"/>
			<path class="st2" d="M1720,1602c-1.9-16.7-4-33.4-6.2-50c-43.9,30.2-98.7,46.9-151.2,53.9c4.8,9.4,7.5,20.1,7.5,31.4
				c0,8.6-1.6,16.8-4.4,24.3C1620,1653.7,1675.8,1635,1720,1602z"/>
			<path class="st4" d="M1492.3,1605.4c5.6,0.1,11.2,0.1,16.8,0c-2.6-0.7-5.2-1-8-1.1c-0.1,0-0.1,0-0.2,0c-0.1,0-0.1,0-0.2,0
				C1497.8,1604.4,1495,1604.7,1492.3,1605.4z"/>
			<path class="st2" d="M1484.6,1666c10.7,0.4,21.5,0.4,32.2,0c10-5.6,16.8-16.4,16.8-28.7c0-11.6-6-21.8-15.1-27.7
				c-11.9,0.4-23.8,0.4-35.7,0c-9.1,5.9-15.1,16.1-15.1,27.7C1467.8,1649.6,1474.6,1660.4,1484.6,1666z"/>
			<path class="st9" d="M1629.8,1104.8c99.7,63,61.8,197.1-17,253.3c-84,59.9-233.6,41.2-307-19.6c10.7,15,23.8,28.5,39.7,39.9
				c37.7,27.1,109.9,36.2,155.3,37.5c45.3-1.3,117.6-10.4,155.3-37.5c64.8-46.6,82.4-127.3,86-202.9c0-0.1,0-0.1,0-0.2
				c0.2-4,0.3-8,0.5-12C1722.2,1136.2,1680.6,1116.7,1629.8,1104.8z"/>
			<path class="st9" d="M1725.7,1272c9.9,19.2,31.6,18.1,48.2,8.1c14.8-9,25-23.2,31.5-39.2c-22.6,0.6-31.3-11.5-36.8-40.8
				c-3.3,37.4-30.2,31.9-30.9,26C1734.9,1241.8,1731,1257.2,1725.7,1272z"/>
			<path class="st9" d="M1378.3,1345.5c14.7,0,26.6-7.6,26.6-16.9c0-9.3-12-16.9-26.6-16.9s-26.6,7.6-26.6,16.9
				C1351.6,1337.9,1363.6,1345.5,1378.3,1345.5z"/>
			<path class="st9" d="M1623.2,1345.5c14.7,0,26.6-7.6,26.6-16.9c0-9.3-12-16.9-26.6-16.9s-26.6,7.6-26.6,16.9
				C1596.5,1337.9,1608.5,1345.5,1623.2,1345.5z"/>
			<path class="st7" d="M1678.8,1565.8c11.7-5.8,22.9-12.4,33.4-19.8c-3-23.2-6.6-46.3-11.4-69.5c-0.3-1.5,0.7-3,2.2-3.3
				c1.5-0.3,3,0.7,3.3,2.2c0.8,3.9,1.6,7.7,2.3,11.6c-5.6-34.4-12.7-73.6-23.5-107.3c-2.4-5.2-5.2-10.4-8.6-16.1
				c-39.9,35-49.4,35.4-81,40.6C1644.7,1415.4,1668.2,1516.5,1678.8,1565.8L1678.8,1565.8z M1692.3,1625L1692.3,1625
				c10-5.6,19.6-11.7,28.8-18.5l54.7,85c-26.3,19.3-58.6,31.8-91.6,38.8c-0.1,0-0.1,0-0.2,0c-16,3.4-32.2,5.4-47.8,6.3
				c-43.4,2.4-96.9-3.9-134.5-27.2c-0.5-0.3-1-0.4-1.5-0.4c-0.5,0-1,0.1-1.5,0.4c-37.6,23.4-91.1,29.6-134.5,27.2
				c-15.7-0.9-31.8-2.9-47.8-6.3c-0.1,0-0.1,0-0.2,0c-32.9-6.9-65.3-19.4-91.6-38.8l16.9-26.2c36.8,57.6,148.3,46.7,207.9,19.5
				c12.8,13.5,30.8,21.9,50.8,21.9c17.9,0,34.2-6.7,46.5-17.7c35.2,18,134.5,20.4,163.1-1.6
				C1730.6,1671.3,1699.1,1651.8,1692.3,1625z"/>
			<path class="st8" d="M1708.7,1487l0,0.2c2.7,14.1,5,28.2,7,42.3c52.6-15,104.5-39.3,148.3-72.1c6-4.5,12.1-9.4,18.2-14.5
				c-91.7,35.9-147.3,48.8-181.6-13.7c-5.1-21.5-8.8-35.2-15.4-49.4C1696,1413.4,1703.1,1452.6,1708.7,1487z"/>
			<path class="st8" d="M1126.1,1449.8c3.9,3.2,7.8,6.2,11.6,9.1c43.8,32.8,95.8,57.1,148.3,72.1c2.6-18,5.5-36,9.3-54
				C1236,1489.1,1178.1,1474.9,1126.1,1449.8z"/>
			<path class="st10" d="M1432.5,1659.9c-1.8-5.1-3.1-10.4-3.7-15.9c-35.1-2.5-72.5-8.6-111.2-19.7
				C1353.3,1642.6,1393.3,1654.1,1432.5,1659.9L1432.5,1659.9z M1465.6,1645.6c27.8,0.4,48.1-1.5,72-4.5c-1.1,8.8-5,16.7-10.9,22.7
				c-18.9,1.2-32.1,1.5-51,0.3C1470.8,1659.1,1467.3,1652.7,1465.6,1645.6L1465.6,1645.6z M1568.3,1636.4
				c71.6-13.2,116.2-36.5,115.2-40.9c-1.9-8.5-3.6-16.6-5.3-24.4c11.5-5.7,22.6-12.1,33-19.2c2.1,16.2,3.9,32.5,5.8,48.8
				c-43.8,32.7-99,51.2-152.8,59.2C1566.9,1652.5,1568.3,1644.6,1568.3,1636.4z"/>
			<path class="st10" d="M1331.4,1881.9c-17.1,19.6-17.6,43.8-1.3,43.4l113.6-2.2l9.4-37.7
				C1414.6,1905.5,1340.5,1916.5,1331.4,1881.9z"/>
			<path class="st10" d="M1610.1,1857.5c64.8,0.8,84.4,68.4,57.3,67.8l-113.6-2.2l-6.2-25c36.6,11.8,96.3,1.9,71.9-18.5
				C1606.2,1868.4,1607.9,1857.5,1610.1,1857.5z"/>
			<path class="st9" d="M1275,1275.5c-9.9,19.2-31.6,18.1-48.2,8.1c-14.8-9-25-23.2-31.5-39.2c22.6,0.6,31.3-11.5,36.8-40.8
				c3.3,37.4,30.2,31.9,30.9,26C1265.8,1245.3,1269.7,1260.7,1275,1275.5z"/>
			<path class="st6" d="M1134.4,1317.1c-6.6-5.9-13.4-12.2-20.3-18.8c-21.9,6.6-49.5,32.6-59,55.3c-0.1,0.2-0.2,0.5-0.3,0.7
				c-0.8,1.9-1.4,3.8-1.9,5.7c5.1,13.4,12.6,26.4,21.6,38.5C1087.5,1366.9,1103.7,1339.2,1134.4,1317.1z"/>
			<path class="st6" d="M1862.7,1317.1c6.6-5.9,13.4-12.2,20.3-18.8c21.9,6.6,49.5,32.6,59,55.3c0.1,0.2,0.2,0.5,0.3,0.7
				c0.8,1.9,1.4,3.8,1.9,5.7c-5.1,13.4-12.6,26.4-21.6,38.5C1909.7,1366.9,1893.4,1339.2,1862.7,1317.1z"/>
			<circle class="st11" cx="1887.9" cy="1318.3" r="7.9"/>
			<circle class="st11" cx="1109.3" cy="1318.3" r="7.9"/>
			<path class="st12" d="M1560.1,1663.6c0-0.1,0.1-0.1,0.1-0.2c3.5-8,5.5-16.8,5.5-26.1c0-11.6-3-22.5-8.4-32
				c-0.1-0.1-0.1-0.2-0.1-0.2c-11.2-19.5-32.2-32.7-56.3-32.7c0,0,0,0-0.1,0c0,0,0,0-0.1,0c-3.5,0-6.9,0.3-10.2,0.8
				c0.9,0,1.7-0.1,2.6-0.1c0,0,0,0,0.1,0c0,0,0,0,0,0c20.7,0,38.8,11.4,48.5,28.2c0,0.1,0.1,0.1,0.1,0.2c4.6,8.1,7.2,17.5,7.2,27.5
				c0,8-1.7,15.6-4.7,22.4c0,0.1-0.1,0.1-0.1,0.2c-8.7,19.6-28.3,33.3-51.1,33.3c-22.8,0-42.5-13.7-51.1-33.3c0-0.1,0-0.1-0.1-0.2
				c-3-6.9-4.7-14.5-4.7-22.4c0-2.5,0.2-4.9,0.5-7.3c-1.2,5-1.9,10.3-1.9,15.7c0,9.3,1.9,18.1,5.5,26.1c0,0.1,0.1,0.1,0.1,0.2
				c10.1,22.8,32.9,38.7,59.4,38.7C1527.2,1702.2,1550,1686.3,1560.1,1663.6z"/>
			<path class="st11" d="M1251.6,1174.1c-0.2-3.3-0.3-6.6-0.4-9.9c-16.5-17.5-7.5-97.2,9.5-111c0.6-0.4,1.1-0.8,1.6-1.2
				c29.8-106.8,94.4-223,205.1-261.3c136.4-47.2,276.9,40.2,340.3,160.1c1.1,2,0.7,4.4-0.9,6c-1.6,1.6-4,1.9-6,0.8
				c-23.9-13.6-73.9-24.5-103.9-26.2c20,36.8,35.8,78.3,41,119.9c0.9,0.7,1.9,1.3,2.8,2c17,13.7,26,93.5,9.5,111
				c-0.1,3.3-0.2,6.6-0.4,9.9c39.5-26,55.1-66.3,74.2-108.1c0.9-1.9,2.8-3.1,4.9-2.9c2.1,0.2,3.9,1.6,4.5,3.6
				c14.3,48.9,8.2,103.5-18.7,147.1c-2.1,27.1-13.4,56.1-37.1,71.2c-14.4,9.2-33.8,12-46.6-0.1c-10.3,30-25.6,57.5-48.1,80.2
				c0.6,1.5,1.1,3,1.7,4.6c84.7,12.3,136.7-20.4,196.2-77.5c1.3-1.2,3.1-1.7,4.8-1.2c2.3,0.6,4.6,1.4,6.8,2.3l106.5-2
				c59.7-1.1,23,64.7-45.1,67.2c0.1,0.4,0.2,0.7,0.3,1.1c0.3,1,0.2,2-0.2,3c-15,40.6-50.8,76.3-84.9,101.8
				c-44.4,33.2-96.8,57.8-150.1,73.1c0.3,2.5,0.7,5,1,7.5c0.9,1.3,1.1,3,0.6,4.5c2.3,17.3,4.4,34.6,6.4,51.9l57.1,88.8
				c1.4,2.2,0.9,5.1-1.2,6.7c-29.4,22.3-65.7,35.8-101.8,42.7l-24.1,76.1c1.3,0.5,2.5,1.1,3.8,1.7c0.2,0.1,0.3,0.2,0.5,0.3
				c2,1.2,2.9,3.6,2.2,5.8l-10.5,35.2c16.4,9,30.7,24.8,34.8,43.2c3.3,14.5-1.3,30.4-18.7,30.1l-115.7-2.3c-1.2,0-2.3-0.5-3.2-1.2
				c-0.8-0.7-1.3-1.6-1.6-2.6l-25.6-102.5c-0.1-0.3-0.2-0.7-0.2-1.1c0-0.7,0.1-1.3,0.3-1.9c0.4-1,1-1.8,1.9-2.4l-8-18.7
				c-0.1-0.2-0.2-0.5-0.2-0.6c-3.3-10.3-29-10.9-32.5,0c0,0.2-0.1,0.4-0.2,0.6l-8,18.7c0.8,0.6,1.5,1.4,1.9,2.4
				c0.2,0.6,0.3,1.3,0.3,1.9c0,0.4-0.1,0.8-0.2,1.1l-25.6,102.5c-0.2,1-0.8,1.9-1.6,2.6c-0.9,0.8-2,1.2-3.2,1.2l-115.7,2.3
				c-17.4,0.3-22-15.5-18.7-30.1c4.2-18.4,18.5-34.2,34.8-43.2l-10.5-35.2c-0.7-2.2,0.2-4.6,2.2-5.8c0.2-0.1,0.3-0.2,0.5-0.3
				c1.2-0.6,2.5-1.1,3.8-1.7l-24.1-76.1c-36.1-7-72.4-20.5-101.8-42.7c-2.1-1.6-2.6-4.5-1.2-6.7l57.1-88.8c2-17.3,4.1-34.6,6.4-51.9
				c-0.5-1.5-0.3-3.2,0.7-4.6c0.1-0.2,0.2-0.3,0.3-0.3c0-2,0.3-4.5,0.7-7.1c-53.3-15.3-105.7-39.9-150.1-73.1
				c-34.1-25.5-69.8-61.3-84.9-101.8c-0.4-1-0.4-2-0.2-3c0.1-0.4,0.2-0.7,0.3-1.1c-68.1-2.5-104.8-68.3-45.1-67.2l106.5,2
				c2.2-0.9,4.5-1.7,6.8-2.3c1.7-0.5,3.5,0,4.8,1.2c59.5,57.1,111.5,89.7,196.2,77.5c0.5-1.5,1.1-3,1.7-4.6
				c-22.5-22.6-37.8-50.2-48.1-80.2c-12.8,12.1-32.3,9.3-46.7,0.1c-23.7-15.2-34.9-44.1-37-71.2c-26.8-43.6-32.9-98.2-18.7-147.1
				c0.6-2,2.3-3.5,4.5-3.6c2.1-0.2,4.1,1,4.9,2.9C1196.5,1107.7,1212,1148.1,1251.6,1174.1L1251.6,1174.1z M1534.3,1813.5
				c30.9-11.5,81.8-10.5,113.4-1.2l22.5-70.8c-10.9,1.7-22,2.9-33,3.5c-44.2,2.4-97.6-3.9-136.5-26.8
				c-38.8,22.9-92.2,29.2-136.5,26.8c-11-0.6-22.1-1.8-33-3.5l22.5,70.8c31.6-9.3,82.5-10.3,113.4,1.2l7.8-18.3
				c6.4-20.2,45.3-19.6,51.6,0L1534.3,1813.5L1534.3,1813.5z M1717,1600.7c-1.7-14.6-3.5-29.2-5.4-43.8
				c-42.6,28.2-94.5,44.2-144.8,51.3c4,9.2,6.1,19.1,6.1,29.1c0,7.1-1,14.1-3.1,20.9C1621.7,1650,1674.6,1632,1717,1600.7
				L1717,1600.7z M1721,1610.2c-44.9,32.5-100.9,50.9-155.4,58.7c-11.4,23.3-34.3,38.6-60.1,40.4c37.1,22,88.9,27.9,131.1,25.6
				c46.9-2.6,98.1-15.7,136.7-43.4L1721,1610.2L1721,1610.2z M1495.9,1709.3c-25.7-1.7-48.7-17.1-60.1-40.4
				c-54.5-7.8-110.5-26.2-155.4-58.7l-52.3,81.3c38.6,27.7,89.8,40.8,136.7,43.4C1407,1737.2,1458.8,1731.3,1495.9,1709.3
				L1495.9,1709.3z M1557.5,1662.6c0-0.1,0.1-0.3,0.2-0.4c3.4-7.8,5.2-16.3,5.2-24.9c0-10.7-2.7-21.2-8-30.5
				c-0.1-0.1-0.2-0.3-0.2-0.4c-11-19.3-31.5-31.2-53.9-31.3c-22.4,0-42.9,12-53.9,31.2c0,0.1-0.1,0.3-0.2,0.4
				c-5.3,9.3-8,19.8-8,30.5c0,8.6,1.8,17.1,5.2,24.9c0.1,0.1,0.1,0.3,0.1,0.3c9.9,22.4,32.2,36.9,56.8,36.9
				C1525.4,1699.4,1547.6,1684.9,1557.5,1662.6L1557.5,1662.6z M1482,1672.8c5.8,3,12.2,4.6,18.7,4.6c22.2,0,40.1-18,40.1-40.1
				c0-22-17.7-39.9-39.7-40.1c-0.1,0-0.2,0-0.3,0c-0.1,0-0.1,0-0.2,0c-22.2,0-40.1,18-40.1,40.1c0,14.7,8,28.1,20.6,35.1
				C1481.3,1672.5,1481.7,1672.7,1482,1672.8L1482,1672.8z M1517.8,1612.5c-11.4,0.4-22.7,0.4-34.1,0c-8.2,5.6-13.1,14.8-13.1,24.8
				c0,10.7,5.6,20.5,14.8,25.9c10.2,0.3,20.4,0.3,30.6,0c9.2-5.4,14.8-15.2,14.8-25.9C1530.8,1627.3,1525.9,1618.1,1517.8,1612.5
				L1517.8,1612.5z M1431.6,1658.1c-2-6.8-3.1-13.8-3.1-20.9c0-10.1,2.1-20,6.1-29.1c-50.3-7.1-102.2-23.1-144.8-51.3
				c-1.9,14.6-3.7,29.2-5.4,43.8C1326.8,1632,1379.8,1650,1431.6,1658.1L1431.6,1658.1z M1326.3,1372.5c-0.3,0.8-0.6,1.7-0.9,2.5
				c-0.1,0.4-0.2,0.9-0.4,1.3c-13.1,38.3-20.2,80.8-26.6,120.7c-2.6,16.2-5,32.4-7.2,48.7c43,29.8,96.8,46.1,148.4,53
				c13.2-20.9,36.2-33.6,61.2-33.6c24.8,0,47.7,12.8,60.9,33.6c51.5-6.9,105.3-23.2,148.4-53c-2.2-16.3-4.6-32.5-7.2-48.7
				c-6.4-39.9-13.5-82.4-26.6-120.7c-0.2-0.4-0.3-0.8-0.4-1.3c-0.3-0.8-0.6-1.7-0.9-2.5c-4.6,4.1-9.5,8-14.5,11.6
				c-26.8,19.3-67.6,28.8-100.3,33.7l-56.3,70.3c-0.1,0.2-0.3,0.4-0.4,0.5c-0.3,0.3-0.7,0.6-1.1,0.8c-0.7,0.4-1.6,0.6-2.4,0.6
				c-0.9,0-1.7-0.2-2.4-0.6c-0.4-0.2-0.8-0.5-1.1-0.8c-0.1-0.1-0.3-0.3-0.4-0.5l-56.5-70.6c-32.2-4.9-72.1-14.4-98.6-33.5
				C1335.8,1380.5,1331,1376.7,1326.3,1372.5L1326.3,1372.5z M1357.5,1854.2c10.1-3.9,20.9-5.8,31.7-5.9c2.8,0,5.1,2.2,5.1,5
				c0,2.8-2.2,5.1-5,5.1c-61,0.8-81.1,63.9-57.4,63.4l111.9-2.2l23.7-94.9c-0.1,0-0.2-0.1-0.3-0.1c-29.2-12.8-88.1-11.9-118.6,0.2
				L1357.5,1854.2L1357.5,1854.2z M1453.9,1419.6l46,57.5l45.9-57.3c-14.9,1.8-30,2.9-45.2,3.3
				C1485,1422.7,1469.4,1421.5,1453.9,1419.6L1453.9,1419.6z M1555.8,1408.4c0.8-0.3,1.6-0.4,2.4-0.4c31.1-4.6,70.9-13.7,96.5-32
				c62-44.5,80.2-120.7,84.6-192.7c0-0.2,0-0.5,0-0.7c0.4-6.3,0.7-12.8,0.9-19.2c-29.8-39.2-100.3-56.8-146.9-64
				c-15.6,24.2-68.6,49.3-94.9,56.9c-10.1,3-33.5,8.9-39.2-3.8c-4.2-9.4,5.6-23.6,14.2-33.7c-7.3,2.4-15,4.2-22.3,4.7
				c-22,1.5-26.7-10.9-19.7-27.2c-53.1,5.9-136.8,23.2-170.1,67c0.2,6.5,0.5,12.9,0.9,19.3c0,0.1,0,0.4,0,0.5
				c1.8,29,5.8,58.4,14,86.4c1.3,1.2,1.9,3.1,1.5,4.8c12.7,40.6,34.1,76.3,69.2,101.5c37.2,26.7,108.9,35.8,154,37.1
				C1519,1412.6,1537.6,1411,1555.8,1408.4L1555.8,1408.4z M1442.8,1312.1c-1.7-2.1-4.9-2.4-7.1-0.7c-2.1,1.8-2.4,4.9-0.7,7.1
				c32.2,39.2,99.1,39.2,131.3,0c1.7-2.1,1.4-5.3-0.7-7.1c-2.1-1.7-5.3-1.4-7.1,0.7C1530.4,1346.4,1471,1346.4,1442.8,1312.1
				L1442.8,1312.1z M1256.5,1226.3c-2-13.3-3.3-26.6-4.2-40c-41.6-24.4-59.2-61.4-78.1-103.1c-8.9,42.9-1.8,88.9,21.7,126.2
				c0.4,0.7,0.7,1.5,0.8,2.3c1.6,24.2,11.3,51,32.5,64.7c11.9,7.7,28.9,10.5,37.7-2.9c-3.6-12.1-6.4-24.4-8.6-36.8
				c-4.4,1.7-9.3,1.6-13.7-0.6c-10.2-5-13.4-18.4-14.3-28.9c-28.3-23.7-46.2-56.2-54.3-92c-0.6-2.7,1.1-5.4,3.8-6
				c2.7-0.6,5.4,1.1,6,3.8c7.8,34.3,25,65.5,52.5,87.8c1.1,0.9,1.8,2.2,1.8,3.6c0.4,6.7,2.2,19.4,8.9,22.7
				C1251.4,1228.4,1254.4,1228,1256.5,1226.3L1256.5,1226.3z M1275.3,1043.5c17.6-10.8,36.7-19.3,56.2-26.1c2.6-0.9,5.5,0.5,6.4,3.1
				c0.9,2.6-0.5,5.5-3.1,6.4c-22.8,8-45.3,18.4-65.2,32.3c-0.9,0.7-1.9,1.3-2.7,1.9c-11.7,9.5-18.9,74.1-10.7,92.6
				c80.4-94.9,408.8-94.9,489.2,0c8.3-18.5,1-83.1-10.7-92.6c-1.3-1-2.8-2-4.4-3.1c-37.8-25.9-86.3-40.6-131.1-48.5
				c-2.7-0.5-4.6-3.1-4.1-5.8c0.5-2.7,3.1-4.6,5.8-4.1c42.9,7.6,88.4,21.1,125.8,44.2c-10.8-66.9-50-137.3-94.1-187.4
				c-1.8-2.1-1.6-5.3,0.5-7.1c2.1-1.8,5.3-1.6,7.1,0.5c19.2,21.9,36.4,46,50.9,71.3c28.1,0.4,71.8,9.5,100.1,20.8
				c-64.2-108.4-194.1-185.5-320.6-141.7C1367.1,836.1,1305.4,943.5,1275.3,1043.5L1275.3,1043.5z M1582.1,1097.9
				c-45.6-6-93.2-6.8-138.9-2.6c-6.3,10.5-9.6,19.6,7.2,18.4c16-1.1,38.1-10.3,51.8-18.7c2.3-1.4,5.5-0.7,6.9,1.6
				c1.4,2.4,0.7,5.5-1.6,6.9c-3.8,2.3-7.8,4.5-11.8,6.5c-8.2,8.2-22.6,23.2-26.4,33.5c-5,13.6,21.8,4.7,26.4,3.3
				C1518.4,1140.1,1565.2,1118.3,1582.1,1097.9L1582.1,1097.9z M1115.7,1301.4c-21.9,7.3-47.6,32.8-56.4,53.6
				c-0.1,0.3-0.2,0.6-0.4,0.9c-0.6,1.5-1.2,3.1-1.6,4.7c14.6,38,48.9,71.8,80.9,95.8c43.1,32.2,93.8,56.2,145.5,71.1
				c1.5-10.6,3.1-21.3,4.8-31.9c6.1-38.2,12.8-78.3,24.6-115.3C1229,1390.9,1175.3,1358.2,1115.7,1301.4L1115.7,1301.4z
				 M1051.2,1348.5c8-17,23.9-34.3,40.2-45.6l-89.2-1.6c-15.7-0.3-26.8,5.3-14.7,20.8C1001.4,1340,1028.9,1348.3,1051.2,1348.5
				L1051.2,1348.5z M1944.1,1360.5c-0.5-1.6-1-3.1-1.6-4.7c-0.1-0.3-0.3-0.6-0.4-0.9c-8.8-20.7-34.5-46.3-56.4-53.6
				c-59.6,56.8-113.3,89.5-197.5,78.8c11.8,37,18.5,77.1,24.6,115.3c1.7,10.6,3.3,21.3,4.8,31.9c51.6-15,102.4-38.9,145.5-71.1
				C1895.2,1432.3,1929.4,1398.5,1944.1,1360.5L1944.1,1360.5z M1534.1,1824.4c-0.1,0-0.2,0.1-0.3,0.1l23.7,94.9l111.9,2.2
				c23.7,0.5,3.6-62.6-57.4-63.4c-2.8,0-5-2.3-5-5.1c0-2.8,2.3-5,5.1-5c10.9,0.1,21.6,2,31.7,5.9l8.8-29.6
				C1622.2,1812.5,1563.3,1811.6,1534.1,1824.4L1534.1,1824.4z M1950.2,1348.5c22.3-0.2,49.8-8.4,63.8-26.4
				c12.1-15.5,0.9-21.1-14.7-20.8l-89.2,1.6C1926.3,1314.2,1942.2,1331.4,1950.2,1348.5L1950.2,1348.5z M1827.3,1083.3
				c-18.9,41.6-36.4,78.6-78.1,103.1c-0.9,13.4-2.2,26.8-4.2,40c2.1,1.7,5,2.1,7.5,0.9c6.7-3.3,8.5-16.1,8.9-22.7
				c0.1-1.4,0.7-2.7,1.8-3.6c27.5-22.3,44.7-53.5,52.5-87.8c0.6-2.7,3.3-4.4,6-3.8c2.7,0.6,4.4,3.3,3.8,6c-8.1,35.8-26,68.3-54.3,92
				c-0.9,10.5-4.2,23.9-14.3,28.9c-4.3,2.1-9.3,2.3-13.7,0.6c-2.2,12.4-5,24.7-8.6,36.8c8.8,13.3,25.7,10.6,37.6,2.9
				c21.3-13.6,31-40.5,32.6-64.7c0.1-0.8,0.3-1.6,0.8-2.3C1829,1172.1,1836.1,1126.2,1827.3,1083.3z"/>
			<path class="st11" d="M1475.7,1154.7c11.9-2.1,38.5-3.1,50-0.2c5.5-8.7,18-13.5,27.4-15.9c44.1-11.6,164.9-13.1,206.6,3.5
				c2,0.8,3.4,2.1,4.4,4c3.3,6.5,3.9,25.6,1.7,32.5c-0.6,1.8-1.6,3.1-3.1,4.2c-19.9,14.2-18.8,37.9-23.8,59.4
				c-9.1,38.8-30.1,63.1-71.1,67.3c-46.5,4.7-93,6.8-123.4-35.4c-13.4-18.6-23-42.3-29.2-64.2c-1.8-6.4-8.8-7-14.5-7.2
				c-5.7,0.2-12.7,0.8-14.5,7.2c-6.2,21.9-15.8,45.7-29.2,64.2c-30.4,42.2-77,40.1-123.4,35.4c-41-4.2-62-28.5-71.1-67.3
				c-5-21.6-4-45.3-23.8-59.4c-1.5-1.1-2.5-2.4-3.1-4.2c-2.3-6.9-1.7-26.1,1.7-32.5c1-1.9,2.4-3.2,4.4-4
				c41.7-16.6,162.5-15.1,206.6-3.5C1457.7,1141.1,1470.3,1145.9,1475.7,1154.7L1475.7,1154.7z M1423.9,1169.6
				c-19.9-6.4-53.9-8.8-75-9.2c-10.6-0.2-54.6,0.3-59,13.1c-9.4,27.5-2.7,67.6,13.5,91.4c12.8,18.7,76.4,23.1,96.6,17.1
				c21.6-6.4,35.6-29,42.5-49.2C1452.3,1204.4,1458.3,1180.6,1423.9,1169.6L1423.9,1169.6z M1577.6,1169.6
				c-34.5,11-28.4,34.7-18.7,63.2c6.9,20.2,20.8,42.7,42.5,49.2c20.2,6,83.8,1.7,96.6-17.1c16.3-23.8,22.9-63.9,13.5-91.4
				c-4.4-12.8-48.4-13.2-59-13.1C1631.4,1160.8,1597.5,1163.3,1577.6,1169.6z"/>
			<path class="st13" d="M1244.7,1149.9c-2.2,4.3-2.7,21.3-1.1,26c22.7,16.2,21.2,39,27.1,64.4c8.3,35.4,26.4,57,63.7,60.8
				c43.6,4.5,87.6,7.1,115.7-31.9c12.7-17.6,22-40.8,27.9-61.6c3-10.6,12.6-13,22.6-13.3c10,0.3,19.6,2.7,22.6,13.3
				c5.9,20.8,15.2,44,27.9,61.6c28.2,39.1,72.1,36.4,115.7,31.9c37.3-3.8,55.5-25.4,63.7-60.8c5.9-25.4,4.4-48.2,27.1-64.4
				c1.6-4.7,1.1-21.7-1.1-26c-40-15.9-159.9-14.1-201.3-3.1c-7.3,1.9-19.7,6.3-23.1,13.4c-1.3,2.7-4.4,4-7.3,2.9
				c-8.7-3.3-39.9-1.9-49.4,0.2c-2.7,0.6-5.3-0.7-6.5-3.2c-3.4-7.2-15.8-11.5-23.1-13.4C1404.7,1135.8,1284.7,1133.9,1244.7,1149.9
				L1244.7,1149.9z M1426.4,1161.6c39.7,12.7,35.5,40.7,24.1,74c-7.9,23-23.6,47.2-48,54.5c-24,7.1-90.8,1.9-106-20.4
				c-17.8-26-24.8-68.9-14.6-98.9C1292.2,1140.7,1402.4,1153.9,1426.4,1161.6L1426.4,1161.6z M1575,1161.6
				c24-7.7,134.2-20.9,144.5,9.2c10.2,30,3.2,72.9-14.6,98.9c-15.2,22.3-82,27.5-106,20.4c-24.4-7.3-40.2-31.6-48-54.5
				C1539.5,1202.3,1535.3,1174.3,1575,1161.6z"/>
			<path class="st14" d="M1717.4,1166.8c0.9,1.2,1.6,2.6,2.1,4c10.2,30,3.2,72.9-14.6,98.9c-15.2,22.3-82,27.5-106,20.4
				c-6.5-1.9-12.4-5.1-17.7-9.1c6.8,6.7,14.9,12,24.2,14.7c24,7.1,90.8,1.9,106-20.4c17.8-26,24.8-68.9,14.6-98.9
				C1724.6,1172.5,1721.7,1169.4,1717.4,1166.8L1717.4,1166.8z M1449.8,1175.2c13.4,14.8,8.9,36.2,0.6,60.4
				c-7.9,23-23.6,47.2-48,54.5c-21,6.2-74.6,3-98-12.8c17.7,20.6,81.2,25.3,104.4,18.4c24.4-7.3,40.2-31.6,48-54.5
				C1466.4,1213.7,1470.9,1189.8,1449.8,1175.2z"/>
			<path class="st15" d="M1244.7,1149.9c-2.2,4.3-2.7,21.3-1.1,26c2.4,1.7,4.5,3.5,6.4,5.3c-1.4-5.1-0.9-21.5,1.2-25.7
				c40-15.9,159.9-14.1,201.3-3.1c4.4,1.2,10.7,3.2,15.7,6.2c-4.4-6.2-15.4-10.1-22.2-11.8
				C1404.7,1135.8,1284.7,1133.9,1244.7,1149.9L1244.7,1149.9z M1757.8,1153.6c-0.3-1.6-0.7-2.9-1.1-3.7
				c-40-15.9-159.9-14.1-201.3-3.1c-7.3,1.9-19.7,6.3-23.1,13.5c-1.3,2.7-4.5,4-7.3,2.9c-8.7-3.3-39.9-1.9-49.4,0.2
				c-0.5,0.1-1,0.2-1.5,0.1c0.6,0.7,1.1,1.5,1.5,2.3c1.2,2.5,3.8,3.7,6.5,3.2c9.5-2.1,40.7-3.5,49.4-0.2c2.8,1.1,6-0.2,7.3-2.9
				c3.4-7.2,15.8-11.5,23.1-13.5C1601.5,1141.9,1713.3,1139.7,1757.8,1153.6z"/>
			
				<ellipse transform="matrix(0.1353 -0.9908 0.9908 0.1353 198.9105 2664.5576)" class="st11" cx="1626" cy="1218.3" rx="38" ry="30"/>
			
				<ellipse transform="matrix(0.1353 -0.9908 0.9908 0.1353 213.2196 2663.6641)" class="st0" cx="1632.6" cy="1209.7" rx="10.1" ry="8"/>
			
				<ellipse transform="matrix(0.9908 -0.1353 0.1353 0.9908 -152.1699 197.265)" class="st11" cx="1375.4" cy="1218.3" rx="30" ry="38"/>
			
				<ellipse transform="matrix(0.1353 -0.9908 0.9908 0.1353 -2.7831 2413.6946)" class="st0" cx="1381.4" cy="1208.4" rx="10.1" ry="8"/>
			<g>
				<path class="st11" d="M1874,1201.8c65,0,130,0,195.1,0c12.1,0,22,9.9,22,22v34.2c0,12.1-9.9,22-22,22H1874c-12.1,0-22-9.9-22-22
					v-34.2C1852.1,1211.6,1861.9,1201.8,1874,1201.8L1874,1201.8z M1874,1037c65,0,130,0,195.1,0c12.1,0,22,9.9,22,22v34.2
					c0,12.1-9.9,22-22,22H1874c-12.1,0-22-9.9-22-22V1059C1852.1,1046.9,1861.9,1037,1874,1037L1874,1037z M1874,1119.4
					c65,0,130,0,195.1,0c12.1,0,22,9.9,22,22v34.2c0,12.1-9.9,22-22,22H1874c-12.1,0-22-9.9-22-22v-34.2
					C1852.1,1129.3,1861.9,1119.4,1874,1119.4z"/>
				<path class="st16" d="M1874,1211.6c-6.7,0-12.1,5.5-12.1,12.1v34.2c0,6.7,5.5,12.1,12.1,12.1h195.1c6.7,0,12.1-5.5,12.1-12.1
					v-34.2c0-6.7-5.5-12.1-12.1-12.1C2003.8,1211.6,1939,1211.6,1874,1211.6L1874,1211.6z M1874,1046.9c-6.7,0-12.1,5.5-12.1,12.1
					v34.2c0,6.7,5.5,12.1,12.1,12.1h195.1c6.7,0,12.1-5.5,12.1-12.1V1059c0-6.7-5.5-12.1-12.1-12.1
					C2003.8,1046.9,1939,1046.9,1874,1046.9L1874,1046.9z M1874,1129.2c-6.7,0-12.1,5.5-12.1,12.1v34.2c0,6.7,5.5,12.1,12.1,12.1
					h195.1c6.7,0,12.1-5.5,12.1-12.1v-34.2c0-6.7-5.5-12.1-12.1-12.1C2003.8,1129.2,1939,1129.2,1874,1129.2z"/>
				<path class="st17" d="M1861.9,1085.3v7.9c0,6.7,5.5,12.1,12.1,12.1h195.1c6.7,0,12.1-5.5,12.1-12.1V1059
					c0-6.7-5.5-12.1-12.1-12.1h-3.6v26.3c0,6.7-5.5,12.1-12.1,12.1H1861.9L1861.9,1085.3z M1861.9,1250v7.9
					c0,6.7,5.5,12.1,12.1,12.1h195.1c6.7,0,12.1-5.5,12.1-12.1v-34.2c0-6.7-5.5-12.1-12.1-12.1h-3.6v26.3c0,6.7-5.5,12.1-12.1,12.1
					H1861.9L1861.9,1250z M1861.9,1167.6v7.9c0,6.7,5.5,12.1,12.1,12.1h195.1c6.7,0,12.1-5.5,12.1-12.1v-34.2
					c0-6.7-5.5-12.1-12.1-12.1h-3.6v26.3c0,6.7-5.5,12.1-12.1,12.1H1861.9z"/>
				<path class="st11" d="M2012.9,1229.6c6.1,0,11.1,5,11.1,11.1c0,6.1-5,11.1-11.1,11.1c-6.1,0-11.1-5-11.1-11.1
					C2001.7,1234.5,2006.7,1229.6,2012.9,1229.6L2012.9,1229.6z M2055,1229.6c6.1,0,11.1,5,11.1,11.1c0,6.1-5,11.1-11.1,11.1
					c-6.1,0-11.1-5-11.1-11.1C2043.9,1234.5,2048.9,1229.6,2055,1229.6z"/>
				<path class="st11" d="M2012.9,1147.2c6.1,0,11.1,5,11.1,11.1c0,6.1-5,11.1-11.1,11.1c-6.1,0-11.1-5-11.1-11.1
					C2001.7,1152.2,2006.7,1147.2,2012.9,1147.2L2012.9,1147.2z M2055,1147.2c6.1,0,11.1,5,11.1,11.1c0,6.1-5,11.1-11.1,11.1
					c-6.1,0-11.1-5-11.1-11.1C2043.9,1152.2,2048.9,1147.2,2055,1147.2z"/>
				<path class="st11" d="M2012.9,1064.8c6.1,0,11.1,5,11.1,11.1c0,6.1-5,11.1-11.1,11.1c-6.1,0-11.1-5-11.1-11.1
					C2001.7,1069.8,2006.7,1064.8,2012.9,1064.8L2012.9,1064.8z M2055,1064.8c6.1,0,11.1,5,11.1,11.1c0,6.1-5,11.1-11.1,11.1
					c-6.1,0-11.1-5-11.1-11.1C2043.9,1069.8,2048.9,1064.8,2055,1064.8z"/>
				<path class="st1" d="M1883.3,1070.7h103.1c3,0,5.4,2.4,5.4,5.4v0c0,3-2.4,5.4-5.4,5.4h-103.1c-3,0-5.4-2.4-5.4-5.4v0
					C1877.9,1073.1,1880.3,1070.7,1883.3,1070.7z"/>
				<path class="st1" d="M1883.3,1152.9h103.1c3,0,5.4,2.4,5.4,5.4v0c0,3-2.4,5.4-5.4,5.4h-103.1c-3,0-5.4-2.4-5.4-5.4v0
					C1877.9,1155.4,1880.3,1152.9,1883.3,1152.9z"/>
				<path class="st1" d="M1883.3,1235.3h103.1c3,0,5.4,2.4,5.4,5.4v0c0,3-2.4,5.4-5.4,5.4h-103.1c-3,0-5.4-2.4-5.4-5.4v0
					C1877.9,1237.7,1880.3,1235.3,1883.3,1235.3z"/>
			</g>
			<g>
				<path class="st11" d="M932.3,1201.8c65,0,130,0,195.1,0c12.1,0,22,9.9,22,22v34.2c0,12.1-9.9,22-22,22H932.3
					c-12.1,0-22-9.9-22-22v-34.2C910.4,1211.6,920.2,1201.8,932.3,1201.8L932.3,1201.8z M932.3,1037c65,0,130,0,195.1,0
					c12.1,0,22,9.9,22,22v34.2c0,12.1-9.9,22-22,22H932.3c-12.1,0-22-9.9-22-22V1059C910.4,1046.9,920.2,1037,932.3,1037L932.3,1037
					z M932.3,1119.4c65,0,130,0,195.1,0c12.1,0,22,9.9,22,22v34.2c0,12.1-9.9,22-22,22H932.3c-12.1,0-22-9.9-22-22v-34.2
					C910.4,1129.3,920.2,1119.4,932.3,1119.4z"/>
				<path class="st16" d="M932.3,1211.6c-6.7,0-12.1,5.5-12.1,12.1v34.2c0,6.7,5.5,12.1,12.1,12.1h195.1c6.7,0,12.1-5.5,12.1-12.1
					v-34.2c0-6.7-5.5-12.1-12.1-12.1C1062.1,1211.6,997.3,1211.6,932.3,1211.6L932.3,1211.6z M932.3,1046.9
					c-6.7,0-12.1,5.5-12.1,12.1v34.2c0,6.7,5.5,12.1,12.1,12.1h195.1c6.7,0,12.1-5.5,12.1-12.1V1059c0-6.7-5.5-12.1-12.1-12.1
					C1062.1,1046.9,997.3,1046.9,932.3,1046.9L932.3,1046.9z M932.3,1129.2c-6.7,0-12.1,5.5-12.1,12.1v34.2
					c0,6.7,5.5,12.1,12.1,12.1h195.1c6.7,0,12.1-5.5,12.1-12.1v-34.2c0-6.7-5.5-12.1-12.1-12.1
					C1062.1,1129.2,997.3,1129.2,932.3,1129.2z"/>
				<path class="st17" d="M920.2,1085.3v7.9c0,6.7,5.5,12.1,12.1,12.1h195.1c6.7,0,12.1-5.5,12.1-12.1V1059
					c0-6.7-5.5-12.1-12.1-12.1h-3.6v26.3c0,6.7-5.5,12.1-12.1,12.1H920.2L920.2,1085.3z M920.2,1250v7.9c0,6.7,5.5,12.1,12.1,12.1
					h195.1c6.7,0,12.1-5.5,12.1-12.1v-34.2c0-6.7-5.5-12.1-12.1-12.1h-3.6v26.3c0,6.7-5.5,12.1-12.1,12.1H920.2L920.2,1250z
					 M920.2,1167.6v7.9c0,6.7,5.5,12.1,12.1,12.1h195.1c6.7,0,12.1-5.5,12.1-12.1v-34.2c0-6.7-5.5-12.1-12.1-12.1h-3.6v26.3
					c0,6.7-5.5,12.1-12.1,12.1H920.2z"/>
				<path class="st11" d="M1071.2,1229.6c6.1,0,11.1,5,11.1,11.1c0,6.1-5,11.1-11.1,11.1c-6.1,0-11.1-5-11.1-11.1
					C1060,1234.5,1065,1229.6,1071.2,1229.6L1071.2,1229.6z M1113.3,1229.6c6.1,0,11.1,5,11.1,11.1c0,6.1-5,11.1-11.1,11.1
					c-6.1,0-11.1-5-11.1-11.1C1102.2,1234.5,1107.2,1229.6,1113.3,1229.6z"/>
				<path class="st11" d="M1071.2,1147.2c6.1,0,11.1,5,11.1,11.1c0,6.1-5,11.1-11.1,11.1c-6.1,0-11.1-5-11.1-11.1
					C1060,1152.2,1065,1147.2,1071.2,1147.2L1071.2,1147.2z M1113.3,1147.2c6.1,0,11.1,5,11.1,11.1c0,6.1-5,11.1-11.1,11.1
					c-6.1,0-11.1-5-11.1-11.1C1102.2,1152.2,1107.2,1147.2,1113.3,1147.2z"/>
				<path class="st11" d="M1071.2,1064.8c6.1,0,11.1,5,11.1,11.1c0,6.1-5,11.1-11.1,11.1c-6.1,0-11.1-5-11.1-11.1
					C1060,1069.8,1065,1064.8,1071.2,1064.8L1071.2,1064.8z M1113.3,1064.8c6.1,0,11.1,5,11.1,11.1c0,6.1-5,11.1-11.1,11.1
					c-6.1,0-11.1-5-11.1-11.1C1102.2,1069.8,1107.2,1064.8,1113.3,1064.8z"/>
				<path class="st1" d="M941.6,1070.7h103.1c3,0,5.4,2.4,5.4,5.4v0c0,3-2.4,5.4-5.4,5.4H941.6c-3,0-5.4-2.4-5.4-5.4v0
					C936.2,1073.1,938.6,1070.7,941.6,1070.7z"/>
				<path class="st1" d="M941.6,1152.9h103.1c3,0,5.4,2.4,5.4,5.4v0c0,3-2.4,5.4-5.4,5.4H941.6c-3,0-5.4-2.4-5.4-5.4v0
					C936.2,1155.4,938.6,1152.9,941.6,1152.9z"/>
				<path class="st1" d="M941.6,1235.3h103.1c3,0,5.4,2.4,5.4,5.4v0c0,3-2.4,5.4-5.4,5.4H941.6c-3,0-5.4-2.4-5.4-5.4v0
					C936.2,1237.7,938.6,1235.3,941.6,1235.3z"/>
			</g>
		</g>
	</g>
</g>
</svg>
